<svg width="17" height="17" viewBox="0 0 17 17" fill="none" xmlns="http://www.w3.org/2000/svg">
<path fill-rule="evenodd" clip-rule="evenodd" d="M0.628746 14.5859C0.242635 14.9808 0.24975 15.6139 0.644638 16C1.03953 16.3861 1.67265 16.379 2.05876 15.9841L8.36084 9.53877L14.9738 15.6828C15.3784 16.0587 16.0111 16.0355 16.387 15.6309C16.7629 15.2263 16.7397 14.5935 16.3351 14.2176L9.75953 8.10829L16.0263 1.69912C16.4124 1.30423 16.4053 0.671104 16.0104 0.284993C15.6155 -0.101119 14.9824 -0.0940042 14.5962 0.300884L8.29385 6.74654L1.68066 0.602247C1.27606 0.22633 0.643319 0.249586 0.267403 0.654191C-0.108514 1.0588 -0.0852582 1.69153 0.319347 2.06745L6.89516 8.17702L0.628746 14.5859Z" fill="current"/>
</svg>
