<svg width="24" height="24" viewBox="0 0 24 24" fill="none" xmlns="http://www.w3.org/2000/svg">
<path d="M21.8098 1.07832C20.3819 -0.35944 18.067 -0.35944 16.6392 1.07832L2.14428 15.6739C2.04494 15.7739 1.97322 15.8979 1.93577 16.034L0.0296477 22.9634C-0.0487426 23.2475 0.0309171 23.5517 0.237842 23.7604C0.445084 23.9687 0.74722 24.0489 1.02936 23.9703L7.91089 22.0507C8.04609 22.0129 8.16923 21.9407 8.26856 21.8407L22.7631 7.24481C24.1888 5.80609 24.1888 3.47704 22.7631 2.03832L21.8098 1.07832ZM3.91457 16.2057L15.7775 4.26L19.6034 8.11245L7.74014 20.0581L3.91457 16.2057ZM3.15034 17.7498L6.20693 20.828L1.97893 22.0075L3.15034 17.7498ZM21.6143 6.08796L20.7526 6.9556L16.9264 3.10282L17.7884 2.23518C18.5815 1.43656 19.8675 1.43656 20.6606 2.23518L21.6143 3.19518C22.4061 3.99475 22.4061 5.2887 21.6143 6.08796V6.08796Z" fill="current"/>
</svg>
