<svg width="30" height="30" viewBox="0 0 30 30" fill="none" xmlns="http://www.w3.org/2000/svg">
<path d="M28.4644 11.8508L26.3587 11.4936C26.1394 10.7854 25.8574 10.1023 25.5127 9.45054L26.7535 7.7146C27.28 6.9751 27.1985 5.96612 26.553 5.3269L24.6855 3.45935C24.3345 3.1084 23.8708 2.91413 23.3757 2.91413C22.9871 2.91413 22.6174 3.0332 22.304 3.25881L20.5618 4.49966C19.885 4.14244 19.1768 3.8479 18.4436 3.62856L18.0926 1.54793C17.9422 0.651761 17.1714 0 16.2627 0H13.6243C12.7156 0 11.9448 0.651761 11.7944 1.54793L11.4309 3.67869C10.729 3.89803 10.0459 4.18631 9.39414 4.53726L7.67073 3.29641C7.35738 3.0708 6.98137 2.95173 6.59282 2.95173C6.09773 2.95173 5.62771 3.146 5.28303 3.49695L3.40921 5.3645C2.76999 6.00372 2.68225 7.0127 3.20867 7.7522L4.46206 9.51321C4.11738 10.1712 3.84163 10.8543 3.62856 11.5625L1.54793 11.9134C0.651761 12.0639 0 12.8347 0 13.7434V16.3818C0 17.2905 0.651761 18.0613 1.54793 18.2117L3.67869 18.5752C3.89803 19.2771 4.18631 19.9602 4.53726 20.612L3.30268 22.3291C2.77625 23.0686 2.85772 24.0776 3.50322 24.7168L5.37076 26.5843C5.72171 26.9353 6.18547 27.1296 6.68055 27.1296C7.0691 27.1296 7.43885 27.0105 7.7522 26.7849L9.51321 25.5315C10.1462 25.8636 10.8105 26.1331 11.4936 26.3462L11.8445 28.4519C11.9949 29.3481 12.7657 29.9998 13.6745 29.9998H16.3191C17.2278 29.9998 17.9986 29.3481 18.149 28.4519L18.5063 26.3462C19.2144 26.1269 19.8975 25.8448 20.5493 25.5002L22.2852 26.741C22.5986 26.9666 22.9746 27.0857 23.3631 27.0857C23.8582 27.0857 24.322 26.8914 24.6729 26.5405L26.5405 24.6729C27.1797 24.0337 27.2674 23.0247 26.741 22.2852L25.5002 20.543C25.8448 19.885 26.1331 19.2019 26.3462 18.5L28.4519 18.149C29.3481 17.9986 29.9998 17.2278 29.9998 16.3191V13.6807C30.0124 12.772 29.3606 12.0012 28.4644 11.8508ZM28.3203 16.3191C28.3203 16.4006 28.2639 16.4695 28.1824 16.482L25.5503 16.9207C25.2182 16.9771 24.9549 17.2215 24.8735 17.5412C24.6353 18.4624 24.2718 19.346 23.783 20.167C23.6138 20.4553 23.6263 20.8125 23.8206 21.0882L25.3686 23.2691C25.4124 23.3318 25.4062 23.4258 25.3498 23.4822L23.4822 25.3498C23.4383 25.3936 23.3945 25.3999 23.3631 25.3999C23.3255 25.3999 23.2942 25.3874 23.2691 25.3686L21.0945 23.8206C20.825 23.6263 20.4615 23.6138 20.1733 23.783C19.3523 24.2718 18.4687 24.6353 17.5474 24.8735C17.2215 24.9549 16.9771 25.2244 16.927 25.5503L16.482 28.1824C16.4695 28.2639 16.4006 28.3203 16.3191 28.3203H13.6807C13.5993 28.3203 13.5303 28.2639 13.5178 28.1824L13.0791 25.5503C13.0227 25.2181 12.7783 24.9549 12.4587 24.8735C11.5625 24.6416 10.6977 24.2844 9.88923 23.8206C9.75762 23.7454 9.60721 23.7078 9.46307 23.7078C9.29387 23.7078 9.11839 23.758 8.97425 23.8645L6.78082 25.425C6.74949 25.4438 6.71815 25.4563 6.68682 25.4563C6.66175 25.4563 6.61162 25.45 6.56775 25.4062L4.7002 23.5386C4.6438 23.4822 4.63753 23.3945 4.6814 23.3255L6.22307 21.1634C6.41734 20.8877 6.42988 20.5242 6.26067 20.2359C5.77185 19.4212 5.39583 18.5376 5.15769 17.6164C5.06995 17.2967 4.80674 17.0523 4.48086 16.9959L1.82995 16.5447C1.74848 16.5322 1.69207 16.4632 1.69207 16.3818V13.7434C1.69207 13.6619 1.74848 13.593 1.82995 13.5805L4.44326 13.1418C4.77541 13.0854 5.04488 12.841 5.12635 12.5151C5.35823 11.5938 5.71545 10.7039 6.198 9.88296C6.36721 9.59468 6.34841 9.23746 6.15413 8.96799L4.59366 6.77456C4.5498 6.71189 4.55606 6.61788 4.61246 6.56148L6.48001 4.69393C6.52388 4.65007 6.56775 4.6438 6.59908 4.6438C6.63669 4.6438 6.66802 4.65633 6.69309 4.67513L8.85518 6.2168C9.13093 6.41108 9.49441 6.42361 9.78269 6.2544C10.5974 5.76558 11.481 5.38956 12.4023 5.15142C12.7219 5.06368 12.9663 4.80047 13.0227 4.47459L13.4739 1.82368C13.4864 1.74221 13.5554 1.68581 13.6369 1.68581H16.2752C16.3567 1.68581 16.4256 1.74221 16.4382 1.82368L16.8769 4.43699C16.9333 4.76914 17.1777 5.03862 17.5036 5.12009C18.4499 5.35823 19.3523 5.72798 20.1921 6.22307C20.4803 6.39227 20.8376 6.37974 21.1133 6.18547L23.2754 4.63127C23.3067 4.61246 23.3381 4.59993 23.3694 4.59993C23.3945 4.59993 23.4446 4.6062 23.4885 4.65007L25.356 6.51761C25.4124 6.57402 25.4187 6.66175 25.3748 6.73069L23.8269 8.90532C23.6326 9.17479 23.6201 9.53828 23.7893 9.82655C24.2781 10.6475 24.6416 11.5312 24.8797 12.4524C24.9612 12.7783 25.2307 13.0227 25.5566 13.0728L28.1887 13.5178C28.2701 13.5303 28.3265 13.5992 28.3265 13.6807V16.3191H28.3203Z" fill="current"/>
<path d="M15.003 8.52295C11.4309 8.52295 8.5293 11.4245 8.5293 14.9967C8.5293 18.5688 11.4309 21.4704 15.003 21.4704C18.5752 21.4704 21.4768 18.5688 21.4768 14.9967C21.4768 11.4245 18.5752 8.52295 15.003 8.52295ZM15.003 19.7784C12.3647 19.7784 10.2214 17.6351 10.2214 14.9967C10.2214 12.3583 12.3647 10.215 15.003 10.215C17.6414 10.215 19.7847 12.3583 19.7847 14.9967C19.7847 17.6351 17.6414 19.7784 15.003 19.7784Z" fill="current"/>
</svg>
