<svg width="34" height="31" viewBox="0 0 34 31" fill="none" xmlns="http://www.w3.org/2000/svg">
<path d="M33.5826 14.8491L17.7493 1.09914C17.5515 0.928411 17.284 0.832581 17.0051 0.832581C16.7263 0.832581 16.4587 0.928411 16.261 1.09914L0.427644 14.8491C0.254716 15.0245 0.164354 15.2501 0.174615 15.4808C0.184877 15.7115 0.295005 15.9303 0.482994 16.0936C0.670983 16.2568 0.922985 16.3525 1.18864 16.3614C1.4543 16.3703 1.71405 16.2918 1.91598 16.1416L16.9999 3.04247L32.0838 16.1508C32.2857 16.301 32.5454 16.3795 32.8111 16.3705C33.0767 16.3616 33.3288 16.266 33.5167 16.1027C33.7047 15.9395 33.8149 15.7206 33.8251 15.4899C33.8354 15.2592 33.745 15.0337 33.5721 14.8583L33.5826 14.8491Z" fill="current"/>
<path d="M27.5557 28.3334H22.2779V19.1667H11.7224V28.3334H6.44461V15.5L4.3335 17.3334V28.3334C4.3335 28.8196 4.55592 29.2859 4.95183 29.6297C5.34774 29.9735 5.88471 30.1667 6.44461 30.1667H13.8335V21H20.1668V30.1667H27.5557C28.1156 30.1667 28.6526 29.9735 29.0485 29.6297C29.4444 29.2859 29.6668 28.8196 29.6668 28.3334V17.1134L27.5557 15.28V28.3334Z" fill="current"/>
</svg>
