<svg width="31" height="33" viewBox="0 0 31 33" fill="none" xmlns="http://www.w3.org/2000/svg">
<path fill-rule="evenodd" clip-rule="evenodd" d="M20 0.5C20.8284 0.5 21.5 1.17157 21.5 2L21.5 31C21.5 31.8284 20.8284 32.5 20 32.5C19.1716 32.5 18.5 31.8284 18.5 31L18.5 2C18.5 1.17157 19.1716 0.5 20 0.5ZM12.5 11C12.5 10.1716 11.8284 9.5 11 9.5C10.1716 9.5 9.5 10.1716 9.5 11L9.5 31C9.5 31.8284 10.1716 32.5 11 32.5C11.8284 32.5 12.5 31.8284 12.5 31L12.5 11ZM3.5 15C3.5 14.1716 2.82843 13.5 2 13.5C1.17157 13.5 0.5 14.1716 0.5 15V31C0.5 31.8284 1.17157 32.5 2 32.5C2.82843 32.5 3.5 31.8284 3.5 31L3.5 15ZM30.5 19C30.5 18.1716 29.8284 17.5 29 17.5C28.1716 17.5 27.5 18.1716 27.5 19V31C27.5 31.8284 28.1716 32.5 29 32.5C29.8284 32.5 30.5 31.8284 30.5 31V19Z" fill="current"/>
</svg>
