<svg width="30" height="30" viewBox="0 0 30 30" fill="none" xmlns="http://www.w3.org/2000/svg">
<path fill-rule="evenodd" clip-rule="evenodd" d="M2 2H11.125V11.125H2V2ZM0 2C0 0.89543 0.895431 0 2 0H11.125H13.125V2V11.125C13.125 12.2296 12.2296 13.125 11.125 13.125H2H0V11.125V2ZM2 17.9375H11.125V27.0625H2L2 17.9375ZM0 15.9375H2H11.125C12.2296 15.9375 13.125 16.8329 13.125 17.9375V27.0625V29.0625H11.125H2C0.89543 29.0625 0 28.1671 0 27.0625V17.9375V15.9375ZM28 17.9375H18.875V27.0625H28V17.9375ZM18.875 15.9375C17.7704 15.9375 16.875 16.8329 16.875 17.9375V27.0625V29.0625H18.875H28C29.1046 29.0625 30 28.1671 30 27.0625V17.9375V15.9375H28H18.875ZM18.875 2H28V11.125H18.875V2ZM16.875 0H18.875H28C29.1046 0 30 0.895431 30 2V11.125V13.125H28H18.875C17.7704 13.125 16.875 12.2296 16.875 11.125V2V0Z" fill="current"/>
</svg>
