<svg width="32" height="32" viewBox="0 0 32 32" fill="none" xmlns="http://www.w3.org/2000/svg">
<path fill-rule="evenodd" clip-rule="evenodd" d="M19.5285 3.99667C19.5463 3.85214 19.5556 3.70493 19.5556 3.55556C19.5556 1.59188 17.9637 0 16 0C14.0363 0 12.4444 1.59188 12.4444 3.55556C12.4444 3.70493 12.4537 3.85214 12.4715 3.99667C6.32365 5.56605 1.77778 11.141 1.77778 17.7778C1.77778 18.2262 1.79853 18.6698 1.83913 19.1077C0.742632 19.7132 0 20.881 0 22.2222C0 24.1859 1.59188 25.7778 3.55556 25.7778C3.77559 25.7778 3.99096 25.7578 4.19994 25.7195C6.7549 29.5083 11.0865 32 16 32C20.9135 32 25.2451 29.5083 27.8001 25.7195C28.009 25.7578 28.2244 25.7778 28.4444 25.7778C30.4081 25.7778 32 24.1859 32 22.2222C32 20.881 31.2574 19.7132 30.1609 19.1077C30.2015 18.6698 30.2222 18.2262 30.2222 17.7778C30.2222 11.141 25.6763 5.56605 19.5285 3.99667ZM28.1897 18.6757C28.2113 18.3792 28.2222 18.0798 28.2222 17.7778C28.2222 11.959 24.1561 7.09002 18.7102 5.8571C18.0581 6.62434 17.0859 7.11111 16 7.11111C14.9141 7.11111 13.9419 6.62434 13.2898 5.8571C7.84391 7.09002 3.77778 11.959 3.77778 17.7778C3.77778 18.0798 3.78873 18.3792 3.81026 18.6757C5.65506 18.8062 7.11111 20.3442 7.11111 22.2222C7.11111 23.2396 6.68381 24.1572 5.99889 24.8053C8.21071 27.9472 11.8656 30 16 30C20.1344 30 23.7893 27.9472 26.0011 24.8053C25.3162 24.1572 24.8889 23.2396 24.8889 22.2222C24.8889 20.3442 26.3449 18.8062 28.1897 18.6757Z" fill="current"/>
</svg>
