<svg width="30" height="30" viewBox="0 0 30 30" fill="none" xmlns="http://www.w3.org/2000/svg">
<path fill-rule="evenodd" clip-rule="evenodd" d="M18.6663 0.69104C18.114 0.69104 17.6663 1.13876 17.6663 1.69104C17.6663 2.24332 18.114 2.69104 18.6663 2.69104H27.8513V27.8512H2.69116V19.5149C2.69116 18.9626 2.24345 18.5149 1.69116 18.5149C1.13888 18.5149 0.691162 18.9626 0.691162 19.5149V28.8512C0.691162 29.4035 1.13888 29.8512 1.69116 29.8512H28.8513C29.4036 29.8512 29.8513 29.4035 29.8513 28.8512V1.69104C29.8513 1.13876 29.4036 0.69104 28.8513 0.69104H18.6663ZM1.84238 0.842285C1.29009 0.842285 0.842377 1.29 0.842377 1.84229V13.8423C0.842377 14.3946 1.29009 14.8423 1.84238 14.8423H13.8424C14.3947 14.8423 14.8424 14.3946 14.8424 13.8423V1.84229C14.8424 1.29 14.3947 0.842285 13.8424 0.842285H1.84238ZM2.84238 12.8423V2.84229H12.8424V12.8423H2.84238Z" fill="current"/>
</svg>
