<svg width="26" height="32" viewBox="0 0 26 32" fill="none" xmlns="http://www.w3.org/2000/svg">
<path d="M22.2857 20.8V13.3333C22.2857 8.17851 18.1285 4 13 4C7.8715 4 3.7143 8.17851 3.7143 13.3333V20.8L0 28.2667H8.45094C8.88087 30.3965 10.7538 32 13 32C15.2462 32 17.1191 30.3965 17.5491 28.2667H26L22.2857 20.8ZM13 30.1333C11.7891 30.1333 10.7687 29.3521 10.3851 28.2667H15.6158C15.2314 29.3521 14.2109 30.1333 13 30.1333ZM2.78574 26.4L5.57143 20.8V13.3333C5.57143 9.20988 8.89757 5.8667 13 5.8667C17.1024 5.8667 20.4286 9.20988 20.4286 13.3333V20.8L23.2143 26.4H2.78574V26.4Z" fill="white"/>
<circle cx="17" cy="6" r="6" fill="#FF0000"/>
</svg>
