<svg width="32" height="32" viewBox="0 0 32 32" fill="none" xmlns="http://www.w3.org/2000/svg">
<path fill-rule="evenodd" clip-rule="evenodd" d="M30 16C30 23.732 23.732 30 16 30C8.26801 30 2 23.732 2 16C2 8.26801 8.26801 2 16 2C23.732 2 30 8.26801 30 16ZM32 16C32 24.8366 24.8366 32 16 32C7.16344 32 0 24.8366 0 16C0 7.16344 7.16344 0 16 0C24.8366 0 32 7.16344 32 16ZM14.96 17.36C14.7867 17.7733 14.7 18.2533 14.7 18.8H16.18C16.18 18.2 16.32 17.7 16.6 17.3C16.88 16.8867 17.3067 16.42 17.88 15.9C18.3067 15.5133 18.6467 15.1733 18.9 14.88C19.1667 14.5867 19.3867 14.2333 19.56 13.82C19.7467 13.3933 19.84 12.9067 19.84 12.36C19.84 11.2933 19.42 10.4467 18.58 9.82C17.7533 9.19333 16.64 8.88 15.24 8.88C13.0533 8.88 11.3933 9.57333 10.26 10.96L11.32 11.76C12.2133 10.68 13.4867 10.14 15.14 10.14C16.14 10.14 16.9267 10.3667 17.5 10.82C18.0733 11.26 18.36 11.8467 18.36 12.58C18.36 13.1267 18.22 13.5933 17.94 13.98C17.6733 14.3533 17.2533 14.7933 16.68 15.3C16.2533 15.6733 15.9067 16.0067 15.64 16.3C15.3733 16.5933 15.1467 16.9467 14.96 17.36ZM14.7 22.8C14.9 23 15.1467 23.1 15.44 23.1C15.7333 23.1 15.98 23 16.18 22.8C16.3933 22.5867 16.5 22.34 16.5 22.06C16.5 21.7667 16.4 21.5267 16.2 21.34C16 21.14 15.7467 21.04 15.44 21.04C15.1467 21.04 14.9 21.14 14.7 21.34C14.5 21.5267 14.4 21.7667 14.4 22.06C14.4 22.34 14.5 22.5867 14.7 22.8Z" fill="current"/>
</svg>
