<svg width="17" height="20" viewBox="0 0 17 20" fill="none" xmlns="http://www.w3.org/2000/svg">
<path fill-rule="evenodd" clip-rule="evenodd" d="M15.8426 3.14667L16.2842 4.47037C16.3848 4.77173 16.3338 5.10559 16.1481 5.36331C15.9624 5.62088 15.6619 5.77484 15.3443 5.77484H15.0887L14.0727 18.3374C13.9974 19.2697 13.2062 20 12.2718 20H4.26928C3.33468 20 2.54366 19.2697 2.46813 18.3376L1.4522 5.77484H0.990622C0.672934 5.77484 0.372489 5.62088 0.186789 5.36316C0.00108961 5.10544 -0.0498748 4.77173 0.0506807 4.47037L0.49227 3.14667C0.660422 2.64252 1.13055 2.30377 1.66201 2.30377H5.37325V1.09543C5.37325 0.491486 5.86443 0 6.46807 0H9.86681C10.4706 0 10.9616 0.491486 10.9616 1.09543V2.30377H14.673C15.2043 2.30377 15.6745 2.64252 15.8426 3.14667ZM9.78976 1.17188H6.54513V2.30377H9.78976V1.17188ZM12.2718 18.8281C12.6001 18.8281 12.8781 18.5712 12.9047 18.243L13.913 5.77484H2.62789L3.63634 18.243C3.66289 18.5712 3.94091 18.8281 4.26928 18.8281H12.2718ZM1.60403 3.51746L1.24193 4.60297H15.0931L14.731 3.51746C14.7226 3.49243 14.6994 3.47565 14.673 3.47565H1.66201C1.63561 3.47565 1.61227 3.49243 1.60403 3.51746ZM11.0666 18.2023C11.0562 18.2023 11.046 18.2021 11.0356 18.2015C10.7124 18.1847 10.4642 17.909 10.481 17.5858L11.031 7.02339C11.048 6.70021 11.3228 6.45149 11.6467 6.46873C11.9698 6.48551 12.2182 6.76124 12.2014 7.08442L11.6512 17.6469C11.635 17.9597 11.3762 18.2023 11.0666 18.2023ZM4.70962 17.6481C4.72671 17.9605 4.9852 18.2022 5.29419 18.2022C5.30487 18.2022 5.31585 18.2019 5.32669 18.2013C5.64971 18.1837 5.89736 17.9075 5.87982 17.5843L5.30349 7.02191C5.28595 6.69873 5.00976 6.45108 4.68658 6.46878C4.36355 6.48633 4.1159 6.76251 4.13345 7.08569L4.70962 17.6481ZM8.76006 17.6163C8.76006 17.9399 8.49776 18.2022 8.17412 18.2022C7.85048 18.2022 7.58818 17.9399 7.58818 17.6163V7.05382C7.58818 6.73018 7.85048 6.46789 8.17412 6.46789C8.49776 6.46789 8.76006 6.73018 8.76006 7.05382V17.6163Z" fill="current"/>
</svg>
