<svg width="64" height="64" viewBox="0 0 64 64" fill="none" xmlns="http://www.w3.org/2000/svg">
<path fill-rule="evenodd" clip-rule="evenodd" d="M59 3H5C3.89543 3 3 3.89543 3 5V6C3 7.10457 3.89543 8 5 8H59C60.1046 8 61 7.10457 61 6V5C61 3.89543 60.1046 3 59 3ZM5 0C2.23858 0 0 2.23858 0 5V6C0 8.76142 2.23858 11 5 11H8.18567C9.66196 22.8389 19.7611 32 32 32C44.2388 32 54.338 22.8389 55.8143 11H59C61.7614 11 64 8.76142 64 6V5C64 2.23858 61.7614 0 59 0H5ZM32 29C21.4206 29 12.6683 21.1769 11.2127 11H52.7873C51.3316 21.1769 42.5794 29 32 29ZM25.4843 38.1368C25.0075 37.4593 24.0718 37.2965 23.3943 37.7733C22.7168 38.25 22.5541 39.1858 23.0308 39.8632C24.5859 42.0731 24.8832 43.7611 24.7163 45.1837C24.5379 46.7053 23.8207 48.1003 22.931 49.7861L22.8791 49.8844C22.0474 51.4594 21.0686 53.3132 20.8192 55.4392C20.5531 57.7086 21.1218 60.1228 23.0308 62.8356C23.5076 63.5131 24.4433 63.6759 25.1208 63.1991C25.7983 62.7223 25.961 61.7866 25.4843 61.1091C23.9292 58.8993 23.632 57.2113 23.7988 55.7887C23.9773 54.2671 24.6944 52.8721 25.5842 51.1863L25.6361 51.088C26.4677 49.513 27.4466 47.6592 27.6959 45.5332C27.9621 43.2637 27.3933 40.8496 25.4843 38.1368ZM32.1367 37.7733C32.8142 37.2965 33.7499 37.4593 34.2267 38.1368C36.1357 40.8496 36.7045 43.2637 36.4383 45.5332C36.189 47.6592 35.2101 49.513 34.3785 51.088L34.3266 51.1863C33.4369 52.8721 32.7197 54.2671 32.5412 55.7887C32.3744 57.2113 32.6716 58.8993 34.2267 61.1091C34.7035 61.7866 34.5407 62.7223 33.8632 63.1991C33.1857 63.6759 32.25 63.5131 31.7733 62.8356C29.8642 60.1228 29.2955 57.7086 29.5617 55.4392C29.811 53.3132 30.7899 51.4594 31.6215 49.8844L31.6734 49.7861C32.5631 48.1003 33.2803 46.7053 33.4588 45.1837C33.6256 43.7611 33.3284 42.0731 31.7733 39.8632C31.2965 39.1858 31.4593 38.25 32.1367 37.7733ZM43.2267 38.1368C42.7499 37.4593 41.8142 37.2965 41.1367 37.7733C40.4593 38.25 40.2965 39.1858 40.7733 39.8632C42.3284 42.0731 42.6256 43.7611 42.4588 45.1837C42.2803 46.7053 41.5631 48.1003 40.6734 49.7861L40.6215 49.8844L40.6215 49.8845C39.7899 51.4594 38.811 53.3132 38.5617 55.4392C38.2955 57.7086 38.8642 60.1228 40.7733 62.8356C41.25 63.5131 42.1857 63.6759 42.8632 63.1991C43.5407 62.7223 43.7035 61.7866 43.2267 61.1091C41.6716 58.8993 41.3744 57.2113 41.5412 55.7887C41.7197 54.2671 42.4369 52.8721 43.3266 51.1863L43.3785 51.088C44.2101 49.513 45.189 47.6592 45.4383 45.5332C45.7045 43.2637 45.1357 40.8496 43.2267 38.1368Z" fill="current"/>
</svg>
