<svg width="65" height="64" viewBox="0 0 65 64" fill="none" xmlns="http://www.w3.org/2000/svg">
<path fill-rule="evenodd" clip-rule="evenodd" d="M3 3H29V22V25V38V41V61H3V3ZM32 40.8822V61V64H29H3H0V61V3V0H3H29H32V3V22.1178C36.534 22.8369 40 26.7637 40 31.5C40 36.2363 36.534 40.1631 32 40.8822ZM32 25.1739V37.8261C34.8667 37.1489 37 34.5736 37 31.5C37 28.4264 34.8667 25.8511 32 25.1739ZM64.6328 31.8164C64.6328 24.017 62.2321 16.6364 57.8311 10.7826C57.1022 9.81312 55.6772 9.81543 54.8805 10.73C54.2247 11.4828 54.2315 12.5996 54.8386 13.3922C58.7478 18.4967 60.8828 24.9707 60.8828 31.8164C60.8828 38.6622 58.7478 45.1362 54.8386 50.2407C54.2315 51.0333 54.2247 52.1501 54.8805 52.9029C55.6772 53.8175 57.1022 53.8198 57.8311 52.8503C62.2321 46.9965 64.6328 39.6159 64.6328 31.8164ZM49.5256 31.8166C49.5256 28.6237 48.6711 25.5285 47.1354 23.0238C46.5014 21.9897 45.0715 21.9904 44.275 22.9052C43.6194 23.6582 43.6384 24.772 44.1484 25.6304C45.1947 27.3913 45.7756 29.5641 45.7756 31.8166C45.7756 34.0691 45.1947 36.2419 44.1484 38.0028C43.6384 38.8612 43.6194 39.975 44.275 40.728C45.0715 41.6428 46.5014 41.6435 47.1354 40.6094C48.6711 38.1047 49.5256 35.0095 49.5256 31.8166ZM52.5051 16.8884C55.5031 21.1003 57.1328 26.3175 57.1328 31.8165C57.1328 37.3156 55.5031 42.5328 52.5051 46.7446C51.8018 47.7327 50.375 47.7304 49.5782 46.816C48.9223 46.0633 48.932 44.9482 49.5167 44.1389C52.0204 40.6734 53.3828 36.3623 53.3828 31.8165C53.3828 27.2708 52.0204 22.9597 49.5167 19.4941C48.932 18.6849 48.9223 17.5697 49.5782 16.817C50.375 15.9026 51.8018 15.9003 52.5051 16.8884ZM20 18C20 20.2091 18.2091 22 16 22C13.7909 22 12 20.2091 12 18C12 15.7909 13.7909 14 16 14C18.2091 14 20 15.7909 20 18ZM22 18C22 21.3137 19.3137 24 16 24C12.6863 24 10 21.3137 10 18C10 14.6863 12.6863 12 16 12C19.3137 12 22 14.6863 22 18ZM16 51C18.2091 51 20 49.2091 20 47C20 44.7909 18.2091 43 16 43C13.7909 43 12 44.7909 12 47C12 49.2091 13.7909 51 16 51ZM16 53C19.3137 53 22 50.3137 22 47C22 43.6863 19.3137 41 16 41C12.6863 41 10 43.6863 10 47C10 50.3137 12.6863 53 16 53Z" fill="current"/>
</svg>
