<svg width="64" height="64" viewBox="0 0 64 64" fill="none" xmlns="http://www.w3.org/2000/svg">
<path fill-rule="evenodd" clip-rule="evenodd" d="M3 3H61V61H3V3ZM0 0H3H61H64V3V61V64H61H3H0V61V3V0ZM30.5 49.9384V45H33.5V49.9384C42.7393 49.1762 50 41.436 50 32C50 22.564 42.7393 14.8238 33.5 14.0616V19H30.5V14.0616C21.2607 14.8238 14 22.564 14 32C14 41.436 21.2607 49.1762 30.5 49.9384ZM30.5 52.9473C19.6021 52.1781 11 43.0936 11 32C11 20.9064 19.6021 11.8219 30.5 11.0527V11H32H33.5V11.0527C44.3979 11.8219 53 20.9064 53 32C53 43.0936 44.3979 52.1781 33.5 52.9473V53H32H30.5V52.9473ZM23 30C23 28.8954 23.8954 28 25 28C26.1046 28 27 28.8954 27 30V34C27 35.1046 26.1046 36 25 36C23.8954 36 23 35.1046 23 34V30ZM39 28C37.8954 28 37 28.8954 37 30V34C37 35.1046 37.8954 36 39 36C40.1046 36 41 35.1046 41 34V30C41 28.8954 40.1046 28 39 28Z" fill="current"/>
</svg>
