<svg width="64" height="65" viewBox="0 0 64 65" fill="none" xmlns="http://www.w3.org/2000/svg">
<path fill-rule="evenodd" clip-rule="evenodd" d="M27 2C27 0.895431 27.8954 0 29 0C30.1046 0 31 0.895431 31 2V7.5V10.5V22.5V25.5V30C31 31.1046 30.1046 32 29 32C27.8954 32 27 31.1046 27 30V25.5H0V22.5H27V10.5H0V7.5H27V2ZM31.9999 39.2426L38.3786 45.6213C41.9015 49.1442 41.9015 54.8558 38.3786 58.3787C34.8558 61.9015 29.1441 61.9015 25.6213 58.3787C22.0984 54.8558 22.0984 49.1442 25.6213 45.6213L31.9999 39.2426ZM31.9999 35L34.1213 37.1213L40.4999 43.5C45.1944 48.1944 45.1944 55.8056 40.4999 60.5C35.8055 65.1944 28.1944 65.1944 23.4999 60.5C18.8055 55.8056 18.8055 48.1944 23.4999 43.5L29.8786 37.1213L31.9999 35ZM28.2517 56.9843C27.6723 56.4049 27.255 55.7246 26.9999 55H29.2091C29.3373 55.2023 29.4895 55.3937 29.6659 55.5701C30.955 56.8592 33.0449 56.8592 34.3339 55.5701C34.5104 55.3937 34.6626 55.2023 34.7907 55H36.9999C36.7449 55.7246 36.3276 56.4049 35.7482 56.9843C33.6781 59.0544 30.3218 59.0544 28.2517 56.9843ZM35 0C33.8954 0 33 0.895431 33 2V30C33 31.1046 33.8954 32 35 32C36.1046 32 37 31.1046 37 30V25.5H64V22.5H37V10.5H64V7.5H37V2C37 0.895431 36.1046 0 35 0Z" fill="current"/>
</svg>
