<svg width="66" height="63" viewBox="0 0 66 63" fill="none" xmlns="http://www.w3.org/2000/svg">
<path fill-rule="evenodd" clip-rule="evenodd" d="M59 3H5C3.89543 3 3 3.89543 3 5V6C3 7.10457 3.89543 8 5 8H59C60.1046 8 61 7.10457 61 6V5C61 3.89543 60.1046 3 59 3ZM5 0C2.23858 0 0 2.23858 0 5V6C0 8.76142 2.23858 11 5 11H8.18567C9.66196 22.8389 19.7611 32 32 32C44.2388 32 54.338 22.8389 55.8143 11H59C61.7614 11 64 8.76142 64 6V5C64 2.23858 61.7614 0 59 0H5ZM32 29C21.4206 29 12.6683 21.1769 11.2127 11H52.7873C51.3316 21.1769 42.5794 29 32 29ZM40.9834 52.5365C38.0405 53.2473 35.6411 52.5231 33.666 50.2997C31.7341 48.1199 31.3811 45.6419 32.4158 42.8337C32.6226 42.2937 32.8594 41.8626 33.106 41.4138C33.2209 41.2046 33.338 40.9914 33.4552 40.7616C35.1538 38.706 37.0292 37.9471 39.3163 38.0417L39.3166 38.0418C41.6468 38.1377 43.5279 38.8937 44.9214 40.6061C45.5098 41.3296 45.9141 42.1864 46.2148 43.1791L46.2172 43.1867C46.3542 43.6306 46.5244 44.1695 46.7689 44.6965C47.3703 46.0156 48.5056 46.842 49.9755 46.9703C50.4027 47.0111 50.815 46.9987 51.1392 46.9854L51.1487 46.985L51.1583 46.9845C52.2744 46.9245 53.183 47.1783 53.8879 47.6435C54.5917 48.1082 55.1812 48.8424 55.5622 49.893C55.619 50.0519 55.6585 50.1782 55.7054 50.3281C55.74 50.439 55.7788 50.5629 55.8316 50.7225C56.05 51.4248 56.4206 52.0577 56.9804 52.5539C57.5432 53.0527 58.2181 53.3433 58.9337 53.4815L58.9347 53.4817L59.0462 53.5031C59.5822 53.606 59.9828 53.6829 60.348 53.8101L60.3493 53.8105C60.9647 54.0242 61.3595 54.3262 61.619 54.668C61.8353 54.9528 62.0032 55.3258 62.0904 55.8186L46.7136 55.5435C46.6357 55.4285 46.5602 55.308 46.487 55.1817C46.4492 55.1152 46.4077 55.0402 46.3628 54.9593C46.2036 54.6724 46.0032 54.311 45.7865 53.9868L45.7855 53.9854C44.9269 52.7045 43.6113 52.1753 42.1776 52.3257C41.7543 52.369 41.3484 52.45 40.9896 52.5351L40.9834 52.5365ZM46.7136 55.5436C46.7136 55.5435 46.7136 55.5435 46.7136 55.5435L43.1506 55.4797C42.9941 55.328 42.8051 55.2761 42.4895 55.3094L42.4843 55.3099C42.238 55.3351 41.9707 55.3857 41.6845 55.4535C37.7021 56.4143 34.1581 55.3714 31.4223 52.2911L31.4213 52.29C28.6718 49.1881 28.2277 45.5144 29.6045 41.7865L29.6073 41.7788L29.6103 41.7712C29.8891 41.0407 30.3305 40.2294 30.6151 39.7064C30.7144 39.5239 30.7946 39.3765 30.8421 39.2799L30.9152 39.1315L31.0188 39.0025C33.3219 36.1363 36.1288 34.9074 39.44 35.0443C42.4097 35.1666 45.1879 36.1804 47.2487 38.713L47.249 38.7133C48.1512 39.8228 48.7077 41.0619 49.0848 42.3055C49.2229 42.7524 49.3419 43.115 49.4919 43.4375L49.4976 43.4497L49.4975 43.4497C49.6601 43.8077 49.8659 43.9501 50.2394 43.9819L50.2482 43.9827L50.257 43.9835C50.4636 44.0036 50.6988 44.0008 51.0073 43.9883C52.6777 43.9003 54.2363 44.2788 55.5406 45.1399C56.848 46.0029 57.8108 47.292 58.3838 48.874L58.3855 48.8787C58.4558 49.0748 58.5346 49.324 58.5994 49.5289C58.6321 49.6322 58.6612 49.7243 58.6839 49.7926L58.6892 49.8087L58.6942 49.8248C58.777 50.0947 58.8819 50.2305 58.9703 50.3088C59.0602 50.3884 59.2137 50.48 59.5015 50.5357L59.6469 50.5635C60.1357 50.6565 60.7507 50.7736 61.3347 50.977L60.8414 52.3935L61.3334 50.9765C62.4271 51.3563 63.343 51.9775 64.0084 52.8539C64.6704 53.7259 65.0181 54.7628 65.1219 55.8729L62.0904 55.8186C62.0904 55.8188 62.0904 55.8189 62.0904 55.819L46.7136 55.5436ZM46.7136 55.5436C47.5715 56.8102 48.7151 57.3956 50.2594 57.3513L50.2628 57.3512C50.9076 57.3342 51.5933 57.1842 52.3601 56.9686C53.1212 56.7519 53.93 56.6758 54.7425 56.8821C55.5679 57.0917 56.2613 57.5584 56.8377 58.2009C57.122 58.5165 57.4579 58.7997 57.8013 59.0047C58.8173 59.6078 59.7697 59.5883 60.7812 58.9508L60.7832 58.9495C61.823 58.2965 62.253 57.4074 62.1351 56.1537L62.135 56.1528C62.1241 56.0358 62.1091 55.9247 62.0904 55.819L65.1219 55.8733C65.342 58.2155 64.4103 60.2142 62.3787 61.4901C60.4364 62.7133 58.275 62.7755 56.2679 61.5832L56.2657 61.5819C55.6335 61.2048 55.0685 60.7195 54.6072 60.207L54.6051 60.2048C54.353 59.9236 54.1552 59.8282 54.0041 59.7898C53.8405 59.7483 53.588 59.738 53.1799 59.8544L53.1749 59.8558C52.3419 60.0901 51.368 60.3229 50.3436 60.3501C47.4855 60.4315 45.2827 59.0891 43.8877 56.6796L43.8814 56.6688L43.8814 56.6687C43.8107 56.5443 43.7485 56.4321 43.6909 56.3285C43.5481 56.0713 43.4343 55.8663 43.293 55.6549C43.2468 55.5861 43.2004 55.5279 43.1507 55.4797L46.7136 55.5436ZM43.1507 55.4797C43.1507 55.4797 43.1507 55.4797 43.1506 55.4797L41.6845 55.4535L43.1507 55.4797Z" fill="current"/>
</svg>
