<svg width="24" height="24" viewBox="0 0 24 24" fill="none" xmlns="http://www.w3.org/2000/svg">
<path fill-rule="evenodd" clip-rule="evenodd" d="M20.3077 0.857157C20.3077 0.383755 20.721 0 21.2308 0C21.7406 0 22.1539 0.383755 22.154 0.857107V5.99995C22.1552 6.36995 21.9006 6.69901 21.5226 6.81593L15.9841 8.53019C15.4998 8.6798 14.9766 8.43647 14.8155 7.98678C14.6544 7.53708 14.9164 7.05127 15.4007 6.90166L19.4899 5.63568C17.5669 3.68497 14.8501 2.57378 12.0021 2.57328C6.3942 2.57223 1.8473 6.79272 1.84616 12C1.84616 12.4734 1.43294 12.8571 0.923119 12.8571C0.413298 12.8571 2.2241e-05 12.4734 2.2241e-05 12C-0.00598138 9.1053 1.20367 6.32248 3.372 4.2428C7.97299 -0.170055 15.5553 -0.284062 20.3077 3.98827V0.857157ZM22.154 12C22.154 11.5266 22.5673 11.1429 23.0771 11.1429C23.5869 11.1429 24.0002 11.5266 24.0001 12C24.0061 14.8947 22.7964 17.6775 20.6281 19.7572C16.0272 24.1701 8.44476 24.2841 3.69239 20.0117V23.1429C3.69239 23.6163 3.27911 24 2.76929 24C2.25947 24 1.8462 23.6163 1.8462 23.1429V18C1.84495 17.63 2.09954 17.301 2.4776 17.1841L8.01607 15.4698C8.50037 15.3202 9.02355 15.5635 9.18467 16.0132C9.34579 16.4629 9.08374 16.9487 8.59945 17.0983L4.51023 18.3643C6.43323 20.315 9.15005 21.4262 11.9981 21.4267C17.606 21.4278 22.1529 17.2073 22.154 12Z" fill="current"/>
</svg>
