<svg width="150" height="150" viewBox="0 0 150 150" fill="none" xmlns="http://www.w3.org/2000/svg">
<path d="M27.9373 131.25H122.062C131.687 131.25 137.687 120.812 132.875 112.5L85.8123 31.1875C80.9998 22.875 68.9998 22.875 64.1873 31.1875L17.1248 112.5C12.3123 120.812 18.3123 131.25 27.9373 131.25ZM74.9998 87.5C71.5623 87.5 68.7498 84.6875 68.7498 81.25V68.75C68.7498 65.3125 71.5623 62.5 74.9998 62.5C78.4373 62.5 81.2498 65.3125 81.2498 68.75V81.25C81.2498 84.6875 78.4373 87.5 74.9998 87.5ZM81.2498 112.5H68.7498V100H81.2498V112.5Z" fill="current"/>
</svg>
